<svg xmlns="http://www.w3.org/2000/svg" width="129" height="31" viewBox="0 0 129 31">
    <g fill="none" fill-rule="evenodd">
        <path fill="#117DAB" d="M39.014.138c9.912 0 14.868 7.266 14.826 15.204-.042 7.728-4.956 15.162-14.826 15.162-9.87 0-14.826-7.476-14.826-15.246 0-7.896 4.914-15.12 14.826-15.12zm0 2.1c-8.442 0-12.642 6.132-12.6 13.062.042 6.636 4.242 13.104 12.6 13.104 8.4 0 12.642-6.468 12.642-13.104 0-6.804-4.2-13.062-12.642-13.062z"/>
        <path fill="#72C7ED" d="M128.246 30V.6h-2.226V30z"/>
        <path fill="#1EBAD8" d="M93.91.6V30h2.268V5.724L116.002 30h.882V.6h-2.226v24.318L94.876.6z"/>
        <path fill="#005073" d="M.688.6V30h18.816v-2.142H2.956V.6z"/>
        <path fill="#189BD3" d="M61.8.6V30h2.268V5.724L83.892 30h.882V.6h-2.226v24.318L62.766.6z"/>
    </g>
</svg>
