<?xml version="1.0" encoding="UTF-8"?>
<svg width="330px" height="99px" viewBox="0 0 330 99" version="1.1" xmlns="http://www.w3.org/2000/svg" xmlns:xlink="http://www.w3.org/1999/xlink">
    <!-- Generator: Sketch 49 (51002) - http://www.bohemiancoding.com/sketch -->
    <title>eosio_logo</title>
    <desc>Created with Sketch.</desc>
    <defs></defs>
    <g id="Landing-Assets-" stroke="none" stroke-width="1" fill="none" fill-rule="evenodd">
        <g id="icons" transform="translate(-512.000000, -233.000000)">
            <g id="eosio_logo" transform="translate(526.000000, 241.000000)" fill="#443F54">
                <g>
                    <path d="M8.28593207,47.5086651 L47.3301775,47.5086651 C45.3217443,36.5668957 37.538146,30.3668505 27.9964863,30.3668505 C18.5806059,30.3668505 10.2946026,36.5668957 8.28593207,47.5086651 Z M7.78352711,53.2222105 C7.78352711,69.0268575 19.0830108,77.1719595 30.8841875,77.1719595 C36.6591153,77.1719595 46.0747584,75.2269028 51.2226886,71.5798035 L51.2226886,78.2661129 C46.0747584,81.3053231 36.9104364,83.1289906 30.3817826,83.1289906 C15.3165162,83.1289906 -7.11957892e-05,73.038596 -7.11957892e-05,53.2222105 C-7.11957892e-05,34.621839 13.0567619,24.4098195 28.4988912,24.4098195 C43.5639202,24.4098195 55.6164181,34.1355748 55.6164181,53.2222105 L7.78352711,53.2222105 Z" id="Fill-1"></path>
                    <path d="M100.954783,77.150822 C112.312801,77.150822 123.795389,68.7325684 123.795389,53.6045959 C123.795389,38.476387 112.437371,30.180425 101.079824,30.180425 C89.5972364,30.180425 78.23969,38.5984421 78.23969,53.6045959 C78.23969,68.7325684 89.5972364,77.150822 100.954783,77.150822 M70.5017422,53.6045959 C70.5017422,34.6945713 85.8530681,24.2020906 101.204866,24.2020906 C116.556192,24.2020906 131.533101,34.6945713 131.533101,53.4825409 C131.533101,72.5148572 116.306345,83.1289199 100.954783,83.1289199 C85.7284984,83.1289199 70.5017422,72.5148572 70.5017422,53.6045959" id="Fill-4"></path>
                    <path d="M162.807006,54.1950217 C154.119082,49.9400332 146.438426,45.5636555 147.571364,36.2023037 C148.452486,29.0294943 153.741119,24.4098666 164.695872,24.4098666 C169.732211,24.4098666 176.279453,25.3826307 181.441939,28.5432301 L176.520084,32.2417136 C173.017733,30.7619431 169.723881,30.4501023 166.961749,30.3668976 C160.918141,30.2455083 156.133618,31.461051 155.378167,36.5669429 C154.370899,43.375113 162.303372,46.2929339 168.97676,49.453769 C179.301257,54.3166467 184.967139,57.9635103 184.967139,66.8383622 C184.967139,76.078089 178.671477,83.1290377 164.569249,83.1290377 C156.385435,83.1290377 149.838193,80.697481 145.431158,78.0231458 L150.335163,74.2940203 C154.511802,76.2560481 159.100441,77.171771 163.562457,77.171771 C174.138771,77.171771 177.664685,71.9447255 177.664685,66.8383622 C177.664685,60.8813312 172.879686,59.0578994 162.807006,54.1950217" id="Fill-6"></path>
                    <path d="M216.519668,0 C219.524144,0 222.027875,2.56736238 222.027875,5.37984504 C222.027875,8.31393961 219.524144,10.8817761 216.519668,10.8817761 C213.515428,10.8817761 211.011225,8.31393961 211.011225,5.37984504 C211.011225,2.56736238 213.515428,0 216.519668,0 Z M220.511911,82.0766551 L213.00072,82.0766551 L213.00072,31.2125362 L200.982578,31.2125362 L200.982578,25.465722 L220.511911,25.465722 L220.511911,82.0766551 Z" id="Fill-9"></path>
                    <path d="M271.421682,77.150822 C282.7797,77.150822 294.262288,68.7325684 294.262288,53.6045959 C294.262288,38.476387 282.90427,30.180425 271.546723,30.180425 C260.064135,30.180425 248.706589,38.5984421 248.706589,53.6045959 C248.706589,68.7325684 260.064135,77.150822 271.421682,77.150822 M240.968641,53.6045959 C240.968641,34.6945713 256.319967,24.2020906 271.671765,24.2020906 C287.023091,24.2020906 302,34.6945713 302,53.4825409 C302,72.5148572 286.773244,83.1289199 271.421682,83.1289199 C256.195397,83.1289199 240.968641,72.5148572 240.968641,53.6045959" id="Fill-11"></path>
                </g>
                <path d="M303.024,82 L303.024,77.08 L301.28,77.08 L301.28,76.664 L305.232,76.664 L305.232,77.08 L303.488,77.08 L303.488,82 L303.024,82 Z M311.004,82 L311.004,77.264 L309.06,82 L308.884,82 L306.932,77.264 L306.932,82 L306.476,82 L306.476,76.664 L307.156,76.664 L308.972,81.088 L310.78,76.664 L311.468,76.664 L311.468,82 L311.004,82 Z" id="TM-"></path>
            </g>
            <rect id="eosio_logo" x="515" y="233" width="327" height="99"></rect>
        </g>
    </g>
</svg>