<svg xmlns="http://www.w3.org/2000/svg" width="20" height="20"><path fill="#0088c1" fill-rule="evenodd" d="M12.512 13.254c-.023-.14-.054-.331-.093-.55-.154-.86-.432-2.184-.77-2.848-.231-.52-.926-.943-1.84-1.147l-.022-.005.034-.026a2.22 2.22 0 0 0 .905-1.242 2.212 2.212 0 0 0-2.12-2.827A2.211 2.211 0 0 0 6.49 7.45c.146.499.461.924.879 1.21.02.016.037.032.058.045l-.041.01c-.778.177-1.398.513-1.7.933a1.238 1.238 0 0 0-.12.206 4.796 4.796 0 0 0-.267.687c-.216.682-.393 1.544-.503 2.165-.04.218-.07.41-.095.55a1.473 1.473 0 0 0-.027.261c0 .644.679 1.21 1.717 1.545.63.204 1.392.323 2.215.323 2.18 0 3.927-.833 3.927-1.868 0-.086.003-.124-.02-.262zM17.202 1.1v17.8c0 .607-.489 1.099-1.093 1.099H1.091A1.095 1.095 0 0 1 0 18.901V1.098C0 .492.489 0 1.091 0H16.11c.604 0 1.093.492 1.093 1.099zm1.695 16.97c.607 0 1.103-.5 1.103-1.11v-2.316c0-.61-.496-1.11-1.103-1.11h-.625v4.536h.625zm0-5.801c.607 0 1.103-.5 1.103-1.11V8.841c0-.61-.496-1.11-1.103-1.11h-.625v4.536h.625zm-.625-5.802V1.93h.625c.607 0 1.103.5 1.103 1.11v2.316c0 .61-.496 1.11-1.103 1.11h-.625z"/></svg>
