<svg xmlns="http://www.w3.org/2000/svg" width="14" height="14" viewBox="0 0 14 14">
    <path fill="#000" fill-rule="evenodd" d="M11.002 3.248a.303.303 0 0 1 0 .42L8.377 6.295c-.08.08-.21.097-.324.065a.3.3 0 0 1-.178-.276V4.625H4.667a2.334 2.334 0 0 0-2.334 2.333c0 .551.195 1.054.503 1.442a.317.317 0 0 1-.017.39l-1.263 1.247c-.05.065-.13.081-.195.081a.261.261 0 0 1-.21-.097A4.68 4.68 0 0 1 0 6.958a4.668 4.668 0 0 1 4.667-4.666h3.208V.833a.3.3 0 0 1 .178-.275c.114-.033.243-.016.324.065l2.625 2.625zm-8.004 7.42a.303.303 0 0 1 0-.42l2.625-2.625c.08-.081.21-.098.324-.065a.3.3 0 0 1 .178.275v1.459h3.208a2.334 2.334 0 0 0 2.334-2.334c0-.55-.195-1.053-.503-1.442a.274.274 0 0 1 .017-.373l1.263-1.263c.05-.065.13-.081.195-.081.08 0 .162.032.21.097A4.68 4.68 0 0 1 14 6.958a4.668 4.668 0 0 1-4.667 4.667H6.125v1.458a.3.3 0 0 1-.178.276c-.114.032-.243.016-.324-.065l-2.625-2.625z"/>
</svg>
