<svg xmlns="http://www.w3.org/2000/svg" width="20" height="20"><path fill="#009FDB" fill-rule="evenodd" d="M18.543 9.104a.266.266 0 0 1-.261.268h-2.893a.267.267 0 0 1-.262-.268v-2.85c0-.146.119-.267.262-.267h2.893c.144 0 .261.12.261.268v2.849zm0 4.561a.265.265 0 0 1-.261.268h-2.893a.266.266 0 0 1-.262-.268v-2.849c0-.147.119-.268.262-.268h2.893c.144 0 .261.12.261.268v2.85zm0 4.56a.266.266 0 0 1-.261.269h-2.893a.266.266 0 0 1-.262-.268v-2.849c0-.148.119-.268.262-.268h2.893c.144 0 .261.12.261.268v2.849zm-3.886-15.03h2.079c0 .604-.49 1.09-1.086 1.064-.568-.026-.993-.482-.993-1.064zm-.672 5.909a.266.266 0 0 1-.262.268H10.83a.266.266 0 0 1-.26-.268v-2.85c0-.146.117-.267.26-.267h2.893c.144 0 .262.12.262.268v2.849zm0 4.561a.265.265 0 0 1-.262.268H10.83a.265.265 0 0 1-.26-.268v-2.849c0-.147.117-.268.26-.268h2.893c.144 0 .262.12.262.268v2.85zm0 4.56a.266.266 0 0 1-.262.269H10.83a.266.266 0 0 1-.26-.268v-2.849c0-.148.117-.268.26-.268h2.893c.144 0 .262.12.262.268v2.849zm-4.558-4.56a.266.266 0 0 1-.262.268H6.272a.265.265 0 0 1-.261-.268v-2.849c0-.147.117-.268.261-.268h2.893c.143 0 .262.12.262.268v2.85zm0 4.56a.266.266 0 0 1-.262.269H6.272a.266.266 0 0 1-.261-.268v-2.849c0-.148.117-.268.261-.268h2.893c.143 0 .262.12.262.268v2.849zM4.257 4.26c-.568-.026-.992-.482-.992-1.064h2.079c0 .604-.491 1.09-1.087 1.064zm.61 9.406a.265.265 0 0 1-.26.268H1.713a.266.266 0 0 1-.262-.268v-2.849c0-.147.118-.268.262-.268h2.892c.144 0 .262.12.262.268v2.85zm0 4.56a.266.266 0 0 1-.26.269H1.713a.266.266 0 0 1-.262-.268v-2.849c0-.148.118-.268.262-.268h2.892c.144 0 .262.12.262.268v2.849zM19.216 2.13h-2.48V1.065c0-.604-.49-1.09-1.085-1.064-.568.025-.993.551-.993 1.133v.996H5.344V1.065c0-.604-.491-1.09-1.087-1.064-.568.025-.992.551-.992 1.133v.996H.785A.797.797 0 0 0 0 2.934v16.261c0 .443.353.805.785.805h18.43a.798.798 0 0 0 .785-.805V2.935a.797.797 0 0 0-.785-.805z"/></svg>