<svg id="Layer_1" data-name="Layer 1" xmlns="http://www.w3.org/2000/svg" viewBox="0 0 14 14"><defs><style>.cls-1{fill:#999}</style></defs><title>Artboard 1</title><path class="cls-1" d="M1 2.19v9.61A1.2 1.2 0 0 0 2.19 13h9.61a1.2 1.2 0 0 0 1.2-1.19V2.19A1.2 1.2 0 0 0 11.81 1H2.19A1.2 1.2 0 0 0 1 2.19zm-1.2 0A2.4 2.4 0 0 1 2.19-.2h9.61a2.4 2.4 0 0 1 2.4 2.39v9.61a2.4 2.4 0 0 1-2.39 2.39H2.19A2.4 2.4 0 0 1-.2 11.81z"/><path class="cls-1" d="M5.63 10.6l6.17-6.22-1-1-5.17 5.26-2.46-2.47-1 1z"/></svg>