<svg xmlns="http://www.w3.org/2000/svg" width="20" height="19"><path fill="#0088c1" fill-rule="evenodd" d="M8.478 10.295c.126-.848.764-1.452 1.59-1.452.837 0 1.371.573 1.423 1.452H8.478zm-.973.456c0 1.59 1.067 2.66 2.658 2.66 1.37 0 2.144-.71 2.144-1.155 0-.446-.523-.54-.544-.52-.261.456-.7.848-1.58.848-.952 0-1.643-.635-1.716-1.579h3.715c.24 0 .314-.084.314-.307v-.085c0-1.526-.963-2.565-2.417-2.565-1.486 0-2.574 1.155-2.574 2.703zm3.74 4.742a2.155 2.155 0 0 1-2.54-.007L0 9.354v8.1c0 .713.576 1.296 1.28 1.296h17.4c.704 0 1.32-.583 1.32-1.296V9.431l-8.755 6.062zM0 8.039v-.548c0-.562.287-1.057.713-1.348L9.061.309A1.59 1.59 0 0 1 9.998 0h.005c.35 0 .674.117.937.309l8.347 5.834c.427.29.713.786.713 1.348v.633l-3.622 2.507V7.013a.57.57 0 0 0-.566-.573H4.152a.57.57 0 0 0-.565.573v3.552L0 8.04z"/></svg>
