<?xml version="1.0" encoding="utf-8"?>
<!-- Generator: Adobe Illustrator 21.1.0, SVG Export Plug-In . SVG Version: 6.00 Build 0)  -->
<svg version="1.1" id="Layer_1" xmlns="http://www.w3.org/2000/svg" xmlns:xlink="http://www.w3.org/1999/xlink" x="0px" y="0px"
	 viewBox="0 0 40.8 17.8" style="enable-background:new 0 0 40.8 17.8;" xml:space="preserve">
<style type="text/css">
	.st0{filter:url(#a);}
	.st1{opacity:0.5;}
	.st2{opacity:0.3;}
</style>
<filter  filterUnits="objectBoundingBox" height="104.9%" id="a" width="103.2%" x="-1.6%" y="-1.6%">
	<feOffset  dy="4" in="SourceAlpha" result="shadowOffsetOuter1"></feOffset>
	<feGaussianBlur  in="shadowOffsetOuter1" result="shadowBlurOuter1" stdDeviation="3"></feGaussianBlur>
	<feColorMatrix  in="shadowBlurOuter1" result="shadowMatrixOuter1" values="0 0 0 0 0 0 0 0 0 0 0 0 0 0 0 0 0 0 0.15 0">
		</feColorMatrix>
	<feMerge>
		<feMergeNode  in="shadowMatrixOuter1"></feMergeNode>
		<feMergeNode  in="SourceGraphic"></feMergeNode>
	</feMerge>
</filter>
<g transform="translate(-283 -23)" class="st0">
	<g class="st1">
		<path d="M285.4,26.4h1.2c1,0,1-1.6,0-1.6h-1.2V26.4z M285.4,27v1.2h-0.6v-3.9c0.6,0,1.2,0,1.8,0c1.9,0,1.9,2.7,0,2.7L285.4,27
			L285.4,27z"/>
		<path d="M290.4,27.7c1,0,1.4-0.7,1.4-1.4c0-0.7-0.4-1.5-1.4-1.5c-0.9,0-1.4,0.6-1.4,1.5C289,27,289.4,27.7,290.4,27.7 M292.4,26.2
			c0,1.1-0.6,2-2,2c-1.4,0-2-1-2-2c0-1.2,0.8-2,2-2C291.7,24.2,292.4,25.2,292.4,26.2 M297,28.2h-0.6l-0.5-1.4l-0.4-1.3l-0.4,1.3
			l-0.5,1.4H294l-1.4-3.9h0.7l1,3l1-3h0.4l1,3l1-3h0.7L297,28.2z M301.9,28.2H299v-3.9h2.9v0.6h-2.2v1.1h2.1v0.6h-2.1v1h2.3V28.2z
			 M303.3,24.9v1.4h1.2c0.5,0,0.7-0.3,0.7-0.7c0-0.4-0.2-0.7-0.7-0.7H303.3L303.3,24.9z M306,28.2h-0.7l-1.2-1.4h-0.8v1.4h-0.6v-3.9
			c0.6,0,1.2,0,1.8,0c0.9,0,1.4,0.6,1.4,1.3c0,0.6-0.3,1.1-1.1,1.2l1.2,1.3L306,28.2L306,28.2z M309.6,28.2h-2.9v-3.9h2.9v0.6h-2.2
			v1.1h2.2v0.6h-2.2v1h2.3V28.2z M311,27.6h0.9c1,0,1.4-0.7,1.3-1.4c0-0.7-0.4-1.3-1.3-1.3H311C311,24.9,311,27.6,311,27.6z
			 M311.8,24.3c1.3,0,1.9,1,2,1.9c0,1-0.6,2-2,2h-1.5v-3.9H311.8z M316.6,27.6h1.2c0.3,0,0.8-0.1,0.8-0.5c0-0.4-0.5-0.6-0.8-0.6
			h-1.2V27.6z M316.6,25.9h1.2c0.5,0,0.7-0.2,0.7-0.5c0-0.3-0.2-0.6-0.7-0.6h-1.2V25.9z M317.7,24.3c0.7,0,1.3,0.3,1.3,1.1
			c0,0.3-0.2,0.6-0.5,0.8c0.5,0.1,0.7,0.6,0.7,0.9c0,0.9-0.7,1.1-1.4,1.1h-1.8v-3.9H317.7L317.7,24.3z M321.1,26l1.1-1.7h0.8v0
			l-1.5,2.3v1.6h-0.6v-1.6l-1.5-2.3v0h0.7L321.1,26z"/>
	</g>
	<g class="st2">
		<path d="M290.7,33.6c-0.6-0.6-1.3-0.7-1.9-0.7c-1.3,0-2.2,0.8-2.2,2.4c0,1,0.5,2.3,2.2,2.3c0.4,0,1.1-0.1,1.6-0.4v-1h-2.1v-1.8h4
			V38c-0.5,1-1.9,1.6-3.5,1.6c-3.2,0-4.4-2.2-4.4-4.3c0-2.1,1.4-4.3,4.5-4.3c1.1,0,2.1,0.2,3.2,1.3L290.7,33.6L290.7,33.6z
			 M293.6,39.3h2.3v-8.1h-2.3V39.3z M299.9,35.2h1.6c0.6,0,1-0.5,1-1s-0.3-1-1-1h-1.7V35.2z M299.9,37.1v2.2h-2.3v-8.1h4
			c2.2,0,3.3,1.4,3.3,3c0,1.7-1.1,3-3.3,3H299.9z M311,39.4v-3.1h-2.9v3.1h-2.3v-8.1h2.3v3.1h2.9v-3.1h2.3v8.1L311,39.4z M318.4,34
			l1.8-2.8h2.6v0.1l-3.2,4.8v3.2h-2.3v-3.2l-3.1-4.8v-0.1h2.6L318.4,34z"/>
	</g>
</g>
</svg>
